<svg width="20" height="20" viewBox="0 0 20 20" fill="none" xmlns="http://www.w3.org/2000/svg">
<path d="M10 0V0C11.09 5.00263 14.9974 8.91005 20 10V10V10C14.9974 11.09 11.09 14.9974 10 20V20V20C8.91005 14.9974 5.00263 11.09 0 10V10V10C5.00263 8.91005 8.91005 5.00263 10 0V0Z" fill="white"/>
<path d="M9.76737 5.35547V5.35547C10.2743 7.68227 12.0917 9.49968 14.4185 10.0066V10.0066V10.0066C12.0917 10.5136 10.2743 12.331 9.76737 14.6578V14.6578V14.6578C9.26042 12.331 7.44301 10.5136 5.11621 10.0066V10.0066V10.0066C7.44302 9.49968 9.26042 7.68227 9.76737 5.35547V5.35547Z" fill="black"/>
<path d="M9.76735 7.68115V7.68115C10.0208 8.84455 10.9295 9.75326 12.0929 10.0067V10.0067V10.0067C10.9295 10.2602 10.0208 11.1689 9.76735 12.3323V12.3323V12.3323C9.51388 11.1689 8.60517 10.2602 7.44177 10.0067V10.0067V10.0067C8.60517 9.75326 9.51388 8.84455 9.76735 7.68115V7.68115Z" fill="white"/>
</svg>
