<svg width="25" height="26" viewBox="0 0 25 26" fill="none" xmlns="http://www.w3.org/2000/svg">
<path d="M17.582 9.49799L12.9031 6.76361C12.7837 6.69376 12.6478 6.65688 12.5095 6.65674C12.3711 6.6566 12.2352 6.69321 12.1156 6.76283L7.41953 9.49721C7.30143 9.56594 7.20343 9.66444 7.1353 9.78288C7.06717 9.90132 7.03129 10.0356 7.03125 10.1722V15.641C7.03129 15.7776 7.06717 15.9118 7.1353 16.0303C7.20343 16.1487 7.30143 16.2472 7.41953 16.316L12.1156 19.0503C12.2318 19.1198 12.3646 19.1565 12.5 19.1566C12.6359 19.1566 12.7813 19.1214 12.9031 19.0496L17.582 16.3152C17.6997 16.2463 17.7973 16.1479 17.8652 16.0296C17.933 15.9113 17.9687 15.7773 17.9688 15.641V10.1722C17.9687 10.0358 17.933 9.90187 17.8652 9.78359C17.7973 9.66531 17.6997 9.56685 17.582 9.49799ZM12.5086 8.34174L15.6391 10.1722L12.5086 12.0019L9.36562 10.1722L12.5086 8.34174ZM8.59375 11.5316L11.7188 13.3519V17.012L8.59375 15.1917V11.5316ZM13.2812 17.0199V13.3613L16.4062 11.5347V15.1933L13.2812 17.0199Z" fill="white"/>
<path d="M12.5 1.18799C12.3617 1.18792 12.2258 1.22458 12.1062 1.29424L2.73125 6.76299C2.6133 6.83182 2.51545 6.93036 2.44746 7.0488C2.37947 7.16723 2.34371 7.30142 2.34375 7.43799V18.3755C2.34371 18.5121 2.37947 18.6462 2.44746 18.7647C2.51545 18.8831 2.6133 18.9817 2.73125 19.0505L12.1062 24.5192C12.2258 24.589 12.3616 24.6257 12.5 24.6257C12.6384 24.6257 12.7742 24.589 12.8938 24.5192L21.4875 19.506L20.7 18.1567L12.5 22.9396L3.90625 17.9271V7.88721L12.5 2.87393L21.0938 7.88643V13.688H22.6562V7.43799C22.6563 7.30142 22.6205 7.16723 22.5525 7.0488C22.4846 6.93036 22.3867 6.83182 22.2687 6.76299L12.8938 1.29424C12.7742 1.22458 12.6383 1.18792 12.5 1.18799Z" fill="white"/>
</svg>
