<svg width="16" height="15" viewBox="0 0 16 15" fill="none" xmlns="http://www.w3.org/2000/svg">
<g clip-path="url(#clip0_73_3496)">
<path d="M13.625 0H2.375C1.34 0 0.5 0.84 0.5 1.875V13.125C0.5 14.16 1.34 15 2.375 15H13.625C14.66 15 15.5 14.16 15.5 13.125V1.875C15.5 0.84 14.66 0 13.625 0ZM7.02594 11.3625C7.02606 11.4808 7.00284 11.5981 6.95761 11.7074C6.91238 11.8168 6.84602 11.9161 6.76233 11.9998C6.67865 12.0835 6.57928 12.1499 6.46992 12.1951C6.36056 12.2403 6.24335 12.2636 6.125 12.2634H3.34906C3.1106 12.2626 2.88219 12.1673 2.71379 11.9985C2.54539 11.8296 2.45071 11.601 2.45047 11.3625V2.84953C2.45047 2.35406 2.85313 1.95094 3.34906 1.95094H6.125C6.62328 1.95094 7.02594 2.35359 7.02594 2.84953V11.3625ZM13.5495 7.6125C13.5494 7.851 13.4548 8.07973 13.2863 8.2486C13.1179 8.41746 12.8894 8.51269 12.6509 8.51344H9.875C9.63613 8.51319 9.40712 8.41819 9.23821 8.24928C9.06931 8.08038 8.97431 7.85137 8.97406 7.6125V2.84953C8.97406 2.35406 9.37953 1.95094 9.875 1.95094H12.6509C13.1464 1.95094 13.5495 2.35359 13.5495 2.84953V7.6125Z" fill="white"/>
</g>
<defs>
<clipPath id="clip0_73_3496">
<rect width="15" height="15" fill="white" transform="translate(0.5)"/>
</clipPath>
</defs>
</svg>
