<svg width="32" height="32" viewBox="0 0 32 32" fill="none" xmlns="http://www.w3.org/2000/svg">
<rect width="32" height="32" rx="6.51047" fill="white"/>
<path d="M15.6646 4V4C16.936 9.83536 21.4938 14.3932 27.3292 15.6646V15.6646V15.6646C21.4938 16.936 16.936 21.4938 15.6646 27.3292V27.3292V27.3292C14.3932 21.4938 9.83536 16.936 4 15.6646V15.6646V15.6646C9.83536 14.3932 14.3932 9.83536 15.6646 4V4Z" fill="black"/>
<path d="M15.7337 10.2466V10.2466C16.3251 12.9607 18.445 15.0806 21.1591 15.672V15.672V15.672C18.445 16.2633 16.3251 18.3832 15.7337 21.0974V21.0974V21.0974C15.1424 18.3832 13.0225 16.2633 10.3083 15.672V15.672V15.672C13.0225 15.0806 15.1424 12.9607 15.7337 10.2466V10.2466Z" fill="white"/>
<path d="M15.7337 12.9595V12.9595C16.0294 14.3165 17.0893 15.3765 18.4464 15.6722V15.6722V15.6722C17.0893 15.9678 16.0294 17.0278 15.7337 18.3849V18.3849V18.3849C15.438 17.0278 14.3781 15.9678 13.021 15.6722V15.6722V15.6722C14.3781 15.3765 15.438 14.3165 15.7337 12.9595V12.9595Z" fill="black"/>
</svg>
