<svg width="149" height="60" viewBox="0 0 149 60" fill="none" xmlns="http://www.w3.org/2000/svg">
<path fill-rule="evenodd" clip-rule="evenodd" d="M21.1027 3.79785C18.9916 3.79628 16.9349 4.4675 15.2303 5.71427C13.5258 6.96104 12.2619 8.71864 11.6218 10.7325C10.9817 12.7464 10.9986 14.9119 11.6701 16.9155C12.3415 18.9191 13.6326 20.6568 15.3564 21.8767C14.0586 22.7958 13.0001 24.0134 12.2701 25.4271C11.54 26.8408 11.1597 28.4094 11.1612 30.0009C11.1612 33.3549 12.8193 36.3237 15.3613 38.125C13.9687 39.1118 12.8533 40.4408 12.1223 41.9841C11.3913 43.5274 11.0694 45.233 11.1874 46.9369C11.3055 48.6408 11.8596 50.2856 12.7965 51.713C13.7334 53.1405 15.0214 54.3025 16.5367 55.0874C18.0521 55.8722 19.7437 56.2535 21.4488 56.1944C23.1539 56.1354 24.8151 55.638 26.2727 54.7502C27.7302 53.8624 28.935 52.614 29.7711 51.1252C30.6071 49.6364 31.0464 47.9572 31.0466 46.2492V37.7082C32.0808 38.547 33.2728 39.1694 34.5519 39.5384C35.8309 39.9073 37.1709 40.0154 38.4925 39.8562C39.814 39.697 41.0902 39.2737 42.2453 38.6115C43.4004 37.9493 44.4108 37.0616 45.2168 36.0011C46.0227 34.9406 46.6077 33.7288 46.937 32.4377C47.2664 31.1467 47.3334 29.8025 47.1341 28.485C46.9348 27.1675 46.4732 25.9035 45.7767 24.7679C45.0803 23.6323 44.1631 22.6483 43.0796 21.8743C44.8034 20.6543 46.0945 18.9167 46.766 16.9131C47.4374 14.9095 47.4543 12.7439 46.8142 10.7301C46.1741 8.7162 44.9103 6.9586 43.2057 5.71183C41.5012 4.46506 39.4444 3.79385 37.3334 3.79541L21.1027 3.79785ZM27.3919 36.2969H21.1027C20.2768 36.2969 19.4589 36.1341 18.6959 35.8176C17.9328 35.5012 17.2395 35.0375 16.6555 34.4528C16.0715 33.8682 15.6082 33.1741 15.2922 32.4103C14.9761 31.6464 14.8134 30.8277 14.8134 30.0009C14.8134 29.1741 14.9761 28.3554 15.2922 27.5915C15.6082 26.8276 16.0715 26.1335 16.6555 25.5489C17.2395 24.9643 17.9328 24.5005 18.6959 24.1841C19.4589 23.8677 20.2768 23.7048 21.1027 23.7048H27.3919V30.0009V36.2969ZM21.1027 20.0486H27.3919V7.45409H21.1027C19.4343 7.45409 17.8343 8.11754 16.6547 9.29851C15.475 10.4795 14.8122 12.0812 14.8122 13.7513C14.8122 15.4215 15.475 17.0232 16.6547 18.2042C17.8343 19.3851 19.4343 20.0486 21.1027 20.0486ZM43.625 13.7501C43.6257 15.4191 42.9643 17.02 41.7864 18.2011C40.6084 19.3821 39.0103 20.0467 37.3431 20.0486H31.0441V7.45409H37.3358C38.1617 7.45409 38.9795 7.61694 39.7426 7.93334C40.5056 8.24975 41.1989 8.71351 41.7829 9.29815C42.3669 9.88279 42.8302 10.5769 43.1463 11.3407C43.4623 12.1046 43.625 12.9233 43.625 13.7501ZM31.0441 29.9936C31.0461 28.3263 31.7085 26.7278 32.8862 25.5489C34.0639 24.3699 35.6606 23.7068 37.3261 23.7048H37.3407C38.5839 23.7063 39.7989 24.0766 40.832 24.769C41.8651 25.4613 42.6701 26.4447 43.1452 27.5949C43.6203 28.745 43.7443 30.0103 43.5014 31.231C43.2585 32.4516 42.6596 33.5728 41.7805 34.4528C40.9014 35.3329 39.7814 35.9324 38.5621 36.1756C37.3428 36.4187 36.0789 36.2947 34.93 35.819C33.781 35.3434 32.7987 34.5376 32.1071 33.5033C31.4155 32.4691 31.0456 31.2528 31.0441 30.0082V29.9936ZM21.1027 39.9531C19.8589 39.9531 18.643 40.3223 17.6088 41.014C16.5746 41.7058 15.7685 42.6889 15.2924 43.8392C14.8163 44.9895 14.6916 46.2553 14.9341 47.4766C15.1766 48.6978 15.7753 49.8197 16.6547 50.7003C17.534 51.5809 18.6544 52.1807 19.8742 52.4239C21.094 52.6672 22.3585 52.5428 23.5078 52.0667C24.657 51.5905 25.6394 50.7839 26.3308 49.7488C27.0221 48.7138 27.3914 47.4968 27.3919 46.2516V39.9531H21.1027Z" fill="#C6C5C5"/>
<path d="M62.5325 17.4109V40.391L65.4873 40.401V29.4576H72.5991V26.5588H65.4773V20.2897H74.7526V17.4009H62.5325V17.4109ZM80.0614 22.0852C81.1332 22.0852 81.9946 21.2225 81.9946 20.1493C81.9946 19.076 81.1332 18.2134 80.0614 18.2134C78.9896 18.2134 78.1282 19.076 78.1282 20.1493C78.1282 21.2225 78.9896 22.0852 80.0614 22.0852ZM78.569 24.974V40.4111H81.5238V24.974H78.569Z" fill="#C6C5C5"/>
<path fill-rule="evenodd" clip-rule="evenodd" d="M92.4718 24.5244C88.5553 24.5244 85.8208 27.8445 85.8208 31.7866C85.8208 35.7286 88.5553 39.0487 92.4718 39.0487C94.2748 39.0487 95.7472 38.3666 96.829 37.2231V39.2794C96.859 41.8372 94.8157 43.9436 92.2514 43.9737C92.2314 43.9737 92.2214 43.9737 92.2013 43.9737C91.2598 43.9737 90.3182 43.6126 89.587 43.081L88.1046 45.6488C91.6204 47.9258 96.2981 46.9127 98.5718 43.402C99.3632 42.1682 99.7838 40.7338 99.7838 39.2694V24.9858H96.829V26.37C95.7472 25.2266 94.2647 24.5445 92.4718 24.5445V24.5244ZM88.7657 31.7866C88.7657 29.3391 90.6287 27.4132 92.7923 27.4132C94.9559 27.4132 96.8089 29.3491 96.8089 31.7866C96.8089 34.234 94.9459 36.1499 92.7923 36.1499C90.6388 36.1499 88.7657 34.2441 88.7657 31.7866Z" fill="#C6C5C5"/>
<path d="M110.421 27.4115C108.658 27.4416 107.246 28.886 107.256 30.6513V40.4111H104.301V24.974H107.256V26.3883C108.158 25.1947 109.57 24.5026 111.062 24.5327C113.136 24.5327 114.728 25.5558 115.64 27.1306C116.672 25.5257 118.434 24.5527 120.338 24.5327C123.693 24.5327 125.797 27.2409 125.797 30.6112V40.4111H122.862V30.6413C122.872 28.8759 121.459 27.4315 119.697 27.4014C117.934 27.4315 116.521 28.8759 116.531 30.6413V40.4011H113.576V30.6413C113.586 28.886 112.184 27.4416 110.421 27.4014V27.4115Z" fill="#C6C5C5"/>
<path fill-rule="evenodd" clip-rule="evenodd" d="M141.533 26.7303C140.171 25.316 138.298 24.5135 136.334 24.5336C131.937 24.5336 128.822 28.2449 128.822 32.6985C128.822 37.1521 131.937 40.8634 136.334 40.8634C138.298 40.8734 140.171 40.081 141.533 38.6667V40.422H144.478V24.9749H141.523V26.7303H141.533ZM131.767 32.6884C131.767 29.7495 134.021 27.4124 136.655 27.4124C139.269 27.4124 141.543 29.7495 141.543 32.6884C141.543 35.6274 139.289 37.9545 136.655 37.9545C134.041 37.9545 131.767 35.6274 131.767 32.6884Z" fill="#C6C5C5"/>
</svg>
