<svg width="30" height="31" viewBox="0 0 30 31" fill="none" xmlns="http://www.w3.org/2000/svg">
<path fill-rule="evenodd" clip-rule="evenodd" d="M10.5753 2.4353C9.51688 2.43452 8.48573 2.77067 7.63115 3.39506C6.77658 4.01945 6.14295 4.89967 5.82204 5.90822C5.50113 6.91678 5.5096 8.0013 5.84622 9.00472C6.18285 10.0081 6.83016 10.8784 7.69438 11.4893C7.0437 11.9496 6.51304 12.5594 6.14703 13.2674C5.78102 13.9754 5.59037 14.7609 5.5911 15.5579C5.5911 17.2376 6.4224 18.7245 7.69682 19.6266C6.99866 20.1208 6.43944 20.7863 6.07296 21.5592C5.70648 22.3321 5.54507 23.1863 5.60427 24.0396C5.66346 24.8929 5.94127 25.7167 6.41097 26.4315C6.88066 27.1464 7.52643 27.7284 8.28614 28.1214C9.04585 28.5145 9.89393 28.7054 10.7488 28.6759C11.6036 28.6463 12.4365 28.3972 13.1672 27.9526C13.898 27.508 14.502 26.8828 14.9212 26.1371C15.3403 25.3915 15.5606 24.5506 15.5606 23.6952V19.4178C16.0792 19.8379 16.6768 20.1496 17.318 20.3344C17.9593 20.5192 18.6311 20.5733 19.2937 20.4936C19.9562 20.4138 20.596 20.2019 21.1751 19.8702C21.7542 19.5386 22.2608 19.094 22.6649 18.5629C23.0689 18.0318 23.3622 17.4249 23.5273 16.7784C23.6924 16.1318 23.726 15.4586 23.6261 14.7988C23.5262 14.139 23.2948 13.5059 22.9456 12.9372C22.5964 12.3685 22.1366 11.8757 21.5934 11.4881C22.4576 10.8771 23.1049 10.0069 23.4416 9.0035C23.7782 8.00008 23.7866 6.91556 23.4657 5.907C23.1448 4.89845 22.5112 4.01823 21.6566 3.39384C20.802 2.76945 19.7709 2.4333 18.7125 2.43408L10.5753 2.4353ZM13.7284 18.711H10.5753C10.1612 18.711 9.75117 18.6295 9.36862 18.471C8.98607 18.3126 8.63848 18.0803 8.34568 17.7875C8.05289 17.4947 7.82064 17.1471 7.66218 16.7646C7.50372 16.382 7.42216 15.972 7.42216 15.5579C7.42216 15.1439 7.50372 14.7339 7.66218 14.3513C7.82064 13.9688 8.05289 13.6212 8.34568 13.3284C8.63848 13.0356 8.98607 12.8033 9.36862 12.6449C9.75117 12.4864 10.1612 12.4049 10.5753 12.4049H13.7284V15.5579V18.711ZM10.5753 10.5738H13.7284V4.26637H10.5753C9.73884 4.26637 8.93669 4.59863 8.34525 5.19007C7.75382 5.7815 7.42155 6.58366 7.42155 7.42008C7.42155 8.25649 7.75382 9.05865 8.34525 9.65008C8.93669 10.2415 9.73884 10.5738 10.5753 10.5738ZM21.8668 7.41947C21.8672 8.2553 21.5356 9.05706 20.945 9.64854C20.3545 10.24 19.5532 10.5728 18.7174 10.5738H15.5594V4.26637H18.7137C19.1278 4.26637 19.5378 4.34793 19.9204 4.50639C20.3029 4.66484 20.6505 4.8971 20.9433 5.18989C21.2361 5.48268 21.4684 5.83028 21.6268 6.21283C21.7853 6.59538 21.8668 7.0054 21.8668 7.41947ZM15.5594 15.5543C15.5604 14.7193 15.8925 13.9188 16.4829 13.3284C17.0734 12.7379 17.8739 12.4058 18.7089 12.4049H18.7162C19.3395 12.4056 19.9486 12.591 20.4666 12.9378C20.9845 13.2845 21.3881 13.777 21.6263 14.353C21.8645 14.929 21.9266 15.5627 21.8048 16.174C21.6831 16.7853 21.3828 17.3468 20.9421 17.7875C20.5013 18.2283 19.9398 18.5285 19.3286 18.6503C18.7173 18.7721 18.0836 18.7099 17.5076 18.4717C16.9316 18.2335 16.4391 17.83 16.0923 17.312C15.7456 16.794 15.5601 16.1849 15.5594 15.5616V15.5543ZM10.5753 20.5421C9.95169 20.5421 9.34212 20.727 8.82362 21.0734C8.30512 21.4198 7.90098 21.9122 7.66229 22.4883C7.42361 23.0644 7.3611 23.6983 7.48266 24.3099C7.60422 24.9215 7.90441 25.4833 8.34525 25.9243C8.7861 26.3654 9.34781 26.6658 9.95937 26.7876C10.5709 26.9094 11.2049 26.8471 11.7811 26.6086C12.3572 26.3702 12.8498 25.9662 13.1964 25.4479C13.543 24.9295 13.7281 24.32 13.7284 23.6964V20.5421H10.5753Z" fill="black"/>
</svg>
