<svg width="14" height="17" viewBox="0 0 14 17" fill="none" xmlns="http://www.w3.org/2000/svg">
<g clip-path="url(#clip0_73_3480)">
<path d="M7 8.5C7.98627 8.5 8.93215 8.1082 9.62955 7.4108C10.327 6.7134 10.7188 5.76752 10.7188 4.78125C10.7188 3.79498 10.327 2.8491 9.62955 2.1517C8.93215 1.4543 7.98627 1.0625 7 1.0625C6.01373 1.0625 5.06785 1.4543 4.37045 2.1517C3.67305 2.8491 3.28125 3.79498 3.28125 4.78125C3.28125 5.76752 3.67305 6.7134 4.37045 7.4108C5.06785 8.1082 6.01373 8.5 7 8.5ZM2.48438 9.5625C1.99124 9.5625 1.5183 9.7584 1.1696 10.1071C0.820898 10.4558 0.625 10.9287 0.625 11.4219V11.6875C0.625 12.9588 1.43409 14.034 2.58266 14.765C3.73759 15.5003 5.30106 15.9375 7 15.9375C8.69894 15.9375 10.2619 15.5003 11.4173 14.765C12.5659 14.034 13.375 12.9588 13.375 11.6875V11.4219C13.375 10.9287 13.1791 10.4558 12.8304 10.1071C12.4817 9.7584 12.0088 9.5625 11.5156 9.5625H2.48438Z" fill="white"/>
</g>
<defs>
<clipPath id="clip0_73_3480">
<rect width="13" height="17" fill="white" transform="translate(0.5)"/>
</clipPath>
</defs>
</svg>
