<svg width="20" height="20" viewBox="0 0 20 20" fill="none" xmlns="http://www.w3.org/2000/svg">
<path d="M10 6.5C9.60603 6.5 9.21593 6.5776 8.85195 6.72837C8.48797 6.87913 8.15726 7.10011 7.87868 7.37868C7.6001 7.65726 7.37913 7.98798 7.22836 8.35195C7.0776 8.71593 7 9.10604 7 9.5C7 9.89397 7.0776 10.2841 7.22836 10.6481C7.37913 11.012 7.6001 11.3427 7.87868 11.6213C8.15726 11.8999 8.48797 12.1209 8.85195 12.2716C9.21593 12.4224 9.60603 12.5 10 12.5H16.44L15.72 11.78C15.6463 11.7113 15.5872 11.6285 15.5462 11.5365C15.5052 11.4445 15.4832 11.3452 15.4814 11.2445C15.4796 11.1438 15.4982 11.0438 15.5359 10.9504C15.5736 10.857 15.6297 10.7722 15.701 10.701C15.7722 10.6297 15.857 10.5736 15.9504 10.5359C16.0438 10.4982 16.1438 10.4796 16.2445 10.4814C16.3452 10.4832 16.4445 10.5052 16.5365 10.5462C16.6285 10.5872 16.7113 10.6463 16.78 10.72L18.78 12.72C18.9205 12.8606 18.9993 13.0513 18.9993 13.25C18.9993 13.4488 18.9205 13.6394 18.78 13.78L16.78 15.78C16.7113 15.8537 16.6285 15.9128 16.5365 15.9538C16.4445 15.9948 16.3452 16.0168 16.2445 16.0186C16.1438 16.0204 16.0438 16.0018 15.9504 15.9641C15.857 15.9264 15.7722 15.8703 15.701 15.799C15.6297 15.7278 15.5736 15.643 15.5359 15.5496C15.4982 15.4562 15.4796 15.3562 15.4814 15.2555C15.4832 15.1548 15.5052 15.0555 15.5462 14.9635C15.5872 14.8715 15.6463 14.7887 15.72 14.72L16.44 14H10C9.02157 13.9998 8.06986 13.6807 7.28906 13.0911C6.50825 12.5015 5.94088 11.6734 5.67292 10.7324C5.40496 9.7914 5.451 8.78869 5.80406 7.87618C6.15713 6.96368 6.79798 6.19111 7.62953 5.67551C8.46109 5.15991 9.43803 4.92939 10.4124 5.01886C11.3867 5.10833 12.3053 5.51291 13.0291 6.17133C13.7528 6.82974 14.2422 7.7061 14.4232 8.66765C14.6042 9.62919 14.4669 10.6235 14.032 11.5H12.236C12.6221 11.0684 12.875 10.5342 12.9642 9.96197C13.0533 9.38975 12.975 8.80396 12.7386 8.27529C12.5021 7.74662 12.1178 7.29769 11.6318 6.98267C11.1459 6.66765 10.5791 6.50002 10 6.5ZM2.75 12.5H5.39C5.77261 13.0871 6.26331 13.5961 6.836 14H2.75C2.55109 14 2.36032 13.921 2.21967 13.7803C2.07902 13.6397 2 13.4489 2 13.25C2 13.0511 2.07902 12.8603 2.21967 12.7197C2.36032 12.579 2.55109 12.5 2.75 12.5Z" fill="white"/>
</svg>
