<svg width="168" height="56" viewBox="0 0 168 56" fill="none" xmlns="http://www.w3.org/2000/svg">
<rect y="9.69232" width="5.38461" height="45.7692" fill="#252525"/>
<rect y="55.4615" width="5.38461" height="44.6923" transform="rotate(-90 0 55.4615)" fill="#252525"/>
<rect x="168" y="45.7692" width="5.38461" height="45.7692" transform="rotate(180 168 45.7692)" fill="#252525"/>
<rect x="168" width="5.38461" height="44.6923" transform="rotate(90 168 0)" fill="#252525"/>
<path d="M32.7412 25.024C32.665 24.2555 32.3379 23.6585 31.7599 23.233C31.182 22.8075 30.3977 22.5947 29.4069 22.5947C28.7337 22.5947 28.1653 22.69 27.7017 22.8805C27.238 23.0647 26.8824 23.3219 26.6347 23.6521C26.3934 23.9824 26.2727 24.3571 26.2727 24.7763C26.26 25.1256 26.333 25.4304 26.4918 25.6908C26.6569 25.9512 26.8824 26.1767 27.1682 26.3672C27.454 26.5514 27.7842 26.7133 28.1589 26.853C28.5336 26.9864 28.9338 27.1007 29.3593 27.196L31.1121 27.6152C31.9632 27.8057 32.7443 28.0597 33.4556 28.3773C34.167 28.6948 34.783 29.0854 35.3038 29.549C35.8246 30.0126 36.2278 30.5588 36.5136 31.1876C36.8058 31.8163 36.955 32.5372 36.9614 33.3501C36.955 34.5441 36.6502 35.5793 36.0468 36.4557C35.4499 37.3258 34.5861 38.0022 33.4556 38.4848C32.3315 38.9612 30.9756 39.1993 29.3878 39.1993C27.8128 39.1993 26.441 38.958 25.2724 38.4753C24.1102 37.9926 23.202 37.2782 22.5478 36.3319C21.9 35.3792 21.5603 34.2011 21.5285 32.7975H25.5201C25.5646 33.4517 25.7519 33.9979 26.0822 34.4361C26.4188 34.868 26.8665 35.195 27.4254 35.4173C27.9906 35.6333 28.6289 35.7412 29.3402 35.7412C30.0388 35.7412 30.6453 35.6396 31.1598 35.4364C31.6805 35.2331 32.0838 34.9505 32.3696 34.5885C32.6554 34.2265 32.7983 33.8105 32.7983 33.3406C32.7983 32.9023 32.6681 32.534 32.4077 32.2355C32.1537 31.937 31.779 31.683 31.2836 31.4734C30.7946 31.2638 30.1944 31.0733 29.4831 30.9018L27.3587 30.3683C25.7138 29.9682 24.415 29.3426 23.4624 28.4916C22.5097 27.6406 22.0366 26.4942 22.0429 25.0525C22.0366 23.8712 22.351 22.8392 22.9861 21.9564C23.6275 21.0736 24.5071 20.3846 25.6249 19.8892C26.7427 19.3938 28.0129 19.1461 29.4355 19.1461C30.8835 19.1461 32.1473 19.3938 33.227 19.8892C34.313 20.3846 35.1577 21.0736 35.7611 21.9564C36.3644 22.8392 36.6756 23.8617 36.6946 25.024H32.7412ZM46.5436 19.4129V38.9231H42.4186V19.4129H46.5436ZM52.62 38.9231V19.4129H56.745V35.5221H65.1092V38.9231H52.62ZM71.9526 19.4129L76.6682 34.236H76.8492L81.5743 19.4129H86.147L79.4213 38.9231H74.1056L67.3703 19.4129H71.9526Z" fill="#252525"/>
<path d="M91.1779 38.9231V19.4129H98.9896C100.425 19.4129 101.622 19.6256 102.581 20.0511C103.54 20.4767 104.261 21.0673 104.744 21.8231C105.226 22.5725 105.468 23.4362 105.468 24.4143C105.468 25.1764 105.315 25.8464 105.01 26.4243C104.706 26.9959 104.286 27.4659 103.753 27.8343C103.226 28.1963 102.622 28.4535 101.943 28.6059V28.7964C102.686 28.8282 103.381 29.0378 104.029 29.4252C104.683 29.8126 105.214 30.3556 105.62 31.0542C106.027 31.7465 106.23 32.5721 106.23 33.5311C106.23 34.5663 105.973 35.4904 105.458 36.3033C104.95 37.1099 104.197 37.7481 103.2 38.2181C102.203 38.6881 100.974 38.9231 99.5136 38.9231H91.1779ZM95.3029 35.5507H98.6657C99.8153 35.5507 100.654 35.3316 101.181 34.8934C101.708 34.4488 101.971 33.8582 101.971 33.1214C101.971 32.5816 101.841 32.1053 101.581 31.6925C101.32 31.2797 100.949 30.9558 100.466 30.7208C99.9899 30.4858 99.4215 30.3683 98.761 30.3683H95.3029V35.5507ZM95.3029 27.577H98.3609C98.9261 27.577 99.4278 27.4786 99.8661 27.2817C100.311 27.0785 100.66 26.7927 100.914 26.4243C101.174 26.056 101.305 25.6146 101.305 25.1002C101.305 24.3952 101.054 23.8268 100.552 23.3949C100.057 22.9631 99.3516 22.7471 98.4371 22.7471H95.3029V27.577ZM111.596 38.9231V19.4129H124.743V22.8138H115.721V27.4627H124.067V30.8637H115.721V35.5221H124.781V38.9231H111.596ZM130.705 38.9231V19.4129H134.83V35.5221H143.194V38.9231H130.705Z" fill="#575454"/>
</svg>
