<svg width="881" height="881" viewBox="0 0 881 881" fill="none" xmlns="http://www.w3.org/2000/svg">
<g opacity="0.05">
<path d="M440.5 0C488.512 220.366 660.634 392.488 881 440.5C660.634 488.512 488.512 660.634 440.5 881C392.488 660.634 220.366 488.512 0 440.5C220.366 392.488 392.488 220.366 440.5 0Z" fill="black"/>
<path d="M430.256 235.896C452.587 338.391 532.644 418.448 635.14 440.779C532.644 463.111 452.587 543.167 430.256 645.663C407.925 543.167 327.868 463.111 225.372 440.779C327.868 418.448 407.925 338.391 430.256 235.896Z" fill="white"/>
<path d="M430.256 338.338C441.422 389.586 481.45 429.614 532.698 440.78C481.45 451.945 441.422 491.974 430.256 543.222C419.09 491.974 379.062 451.945 327.814 440.78C379.062 429.614 419.09 389.586 430.256 338.338Z" fill="black"/>
</g>
</svg>
