<svg width="24" height="25" viewBox="0 0 24 25" fill="none" xmlns="http://www.w3.org/2000/svg">
<path d="M11 18.9067H13V16.9067H11V18.9067ZM12 6.90674C9.8 6.90674 8 8.70674 8 10.9067H10C10 9.80674 10.9 8.90674 12 8.90674C13.1 8.90674 14 9.80674 14 10.9067C14 12.9067 11 12.7067 11 15.9067H13C13 13.7067 16 13.4067 16 10.9067C16 8.70674 14.2 6.90674 12 6.90674ZM19 5.90674V19.9067H5V5.90674H19ZM19 3.90674H5C3.9 3.90674 3 4.80674 3 5.90674V19.9067C3 21.0067 3.9 21.9067 5 21.9067H19C20.1 21.9067 21 21.0067 21 19.9067V5.90674C21 4.80674 20.1 3.90674 19 3.90674Z" fill="white"/>
</svg>
