<svg width="24" height="25" viewBox="0 0 24 25" fill="none" xmlns="http://www.w3.org/2000/svg">
<g clip-path="url(#clip0_71_885)">
<path fill-rule="evenodd" clip-rule="evenodd" d="M5 21.9067C4.46957 21.9067 3.96086 21.696 3.58579 21.321C3.21071 20.9459 3 20.4372 3 19.9067V5.90674C3 5.3763 3.21071 4.8676 3.58579 4.49253C3.96086 4.11745 4.46957 3.90674 5 3.90674H11C11.5304 3.90674 12.0391 4.11745 12.4142 4.49253C12.7893 4.8676 13 5.3763 13 5.90674V11.9067H19C19.5304 11.9067 20.0391 12.1175 20.4142 12.4925C20.7893 12.8676 21 13.3763 21 13.9067V19.9067C21 20.4372 20.7893 20.9459 20.4142 21.321C20.0391 21.696 19.5304 21.9067 19 21.9067H5ZM13 13.9067H19V19.9067H13V13.9067ZM5 11.9067V5.90674H11V11.9067H5ZM5 13.9067H11V19.9067H5V13.9067Z" fill="white"/>
</g>
<defs>
<clipPath id="clip0_71_885">
<rect width="24" height="24" fill="white" transform="matrix(1 0 0 -1 0 24.9067)"/>
</clipPath>
</defs>
</svg>
