<svg width="59" height="56" viewBox="0 0 59 56" fill="none" xmlns="http://www.w3.org/2000/svg">
<g clip-path="url(#clip0_71_357)">
<rect y="0.813477" width="58.9819" height="55" rx="12" fill="white"/>
<path d="M29.5 7C31.8434 17.7556 40.2444 26.1566 51 28.5C40.2444 30.8434 31.8434 39.2444 29.5 50C27.1566 39.2444 18.7556 30.8434 8 28.5C18.7556 26.1566 27.1566 17.7556 29.5 7Z" fill="black"/>
<path d="M29 18.5137C30.09 23.5163 33.9974 27.4237 39 28.5137C33.9974 29.6036 30.09 33.511 29 38.5137C27.9101 33.511 24.0026 29.6036 19 28.5137C24.0026 27.4237 27.9101 23.5163 29 18.5137Z" fill="white"/>
<path d="M29 23.5137C29.545 26.015 31.4987 27.9687 34 28.5137C31.4987 29.0586 29.545 31.0124 29 33.5137C28.455 31.0124 26.5013 29.0586 24 28.5137C26.5013 27.9687 28.455 26.015 29 23.5137Z" fill="black"/>
</g>
<defs>
<clipPath id="clip0_71_357">
<rect y="0.813477" width="58.9819" height="55" rx="12" fill="white"/>
</clipPath>
</defs>
</svg>
