<svg width="147" height="74" viewBox="0 0 147 74" fill="none" xmlns="http://www.w3.org/2000/svg">
<path fill-rule="evenodd" clip-rule="evenodd" d="M57.1957 37.851C57.1957 34.3844 59.7835 31.9647 64.4915 31.9647C67.36 31.9647 69.7109 32.8596 70.9845 33.7362C71.3224 33.9493 71.4539 34.3689 71.2964 34.73L70.2595 36.8467C70.0678 37.1922 69.5799 37.148 69.3305 37.0231C68.4231 36.5742 66.9375 35.8164 65.589 35.6763C65.2537 35.6412 64.903 35.6231 64.5477 35.6307C63.3442 35.6566 62.3403 36.0645 61.9848 36.9607C61.9131 37.1388 61.8745 37.3166 61.8709 37.4933C61.8398 38.6741 63.5203 39.1001 65.5581 39.4399C69.3495 40.0743 72.2148 41.1593 72.2148 44.9666C72.2148 48.2003 69.5646 51.1236 64.4201 51.0339C61.0183 50.967 58.6053 49.8469 57.3114 48.7558C57.2678 48.7193 56.7751 48.2292 57.0385 47.642C57.3411 46.884 57.8492 46.0138 58.25 45.5571C58.473 45.2602 59.0606 45.2132 59.3648 45.3989C60.4311 46.0457 62.1709 47.0819 64.2069 47.149L64.6792 47.1519C66.4986 47.1093 67.5992 46.4368 67.5757 45.3016C67.5556 44.3017 66.1135 43.7187 63.8342 43.2958C60.1707 42.6217 57.2243 41.444 57.2243 37.8482M90.4986 42.783C87.9155 42.8164 85.5474 43.5057 85.4788 45.4764C85.4788 47.0391 86.7773 47.8075 88.6026 47.7072C90.3516 47.5429 91.6861 46.802 92.2739 45.8201C92.4922 45.4549 92.5234 44.0931 92.5108 43.5103C92.5077 43.3884 92.2569 43.1514 92.1461 43.107C91.5973 42.8819 91.1904 42.8118 90.4983 42.7845M81.9037 34.8458C83.1119 33.7912 85.4892 32.1493 89.3245 32.236C94.3598 32.338 97.0209 34.6435 97.2686 40.1444C97.3699 42.418 97.2017 48.7602 97.1583 50.3398C97.1784 50.4477 97.1432 50.5584 97.064 50.6361C97.0246 50.6744 96.9766 50.7029 96.9239 50.7192C96.8712 50.7354 96.8153 50.7389 96.761 50.7294L93.1347 50.737C92.6905 50.7157 92.6389 50.5012 92.6327 50.2747L92.6062 49.3342C92.6016 49.1456 92.4193 49.1517 92.3723 49.1821C91.1906 50.3997 89.2546 51.0084 87.1966 51.0084C84.0692 51.0084 80.9516 49.2128 80.9608 45.6565C80.9702 42.015 83.6156 40.218 86.5215 39.7948C88.383 39.524 90.4812 39.7644 92.0683 40.3808C92.1696 40.4202 92.377 40.3625 92.3801 40.2224C92.3862 39.7584 92.3644 38.8743 92.2711 38.4542C92.0371 37.3859 91.1252 36.5261 89.2077 36.2934C88.8133 36.2453 88.4149 36.235 88.0182 36.263C86.4935 36.38 84.6602 37.5411 83.8994 37.9748C83.7201 38.0766 83.4413 38.0022 83.3506 37.8881C82.9079 37.3284 81.7918 35.6936 81.7059 35.432C81.6201 35.1704 81.7418 34.9526 81.8978 34.8156L81.9037 34.8458ZM98.8993 41.608C98.8682 36.5284 102.494 32.2433 108.382 32.2038C112.055 32.1812 114.724 33.8061 115.195 34.5731C115.289 34.7527 115.242 34.9033 115.175 35.0845C114.699 35.9905 114.145 36.854 113.519 37.6654C113.281 37.9635 113.02 37.708 112.721 37.5131C111.887 36.9698 110.3 36.3061 108.739 36.3061C105.909 36.3061 103.798 38.2022 103.823 41.6887C103.844 45.0365 105.849 46.8731 108.749 46.9386C110.256 46.9751 111.719 46.1292 112.49 45.4367C112.736 45.2269 112.992 45.3302 113.274 45.5462C113.828 46.0986 114.621 46.9509 115.062 47.5243C115.351 47.8501 115.136 48.1697 115.031 48.2976C113.837 49.7734 111.53 51.0137 108.477 51.0305C102.086 51.076 98.9151 46.6875 98.8853 41.5898M129.394 50.8054C129.693 50.784 132.895 50.3516 133.879 50.1326C134.122 50.0778 134.209 49.8786 134.075 49.6793L130.572 44.551L127.244 40.3861C127.128 40.2338 127.135 40.0817 127.259 39.96L133.349 34.0008C133.897 33.4225 133.567 33.1717 133.102 33.036C132.201 32.7744 130.745 32.4471 129.917 32.2751C129.568 32.2035 129.147 32.2295 128.826 32.5338L121.795 39.3437C121.561 39.5718 121.427 39.5213 121.426 39.1944L121.275 24.5783C121.269 24.35 120.988 24.1781 120.83 24.1708L117.159 24.1631C116.927 24.2038 116.743 24.3784 116.696 24.6044C116.509 27.354 116.774 47.5395 116.886 50.364C116.889 50.5615 117.046 50.7241 117.248 50.7384C118.054 50.7839 120.048 50.781 120.98 50.7642C121.438 50.7642 121.495 50.4493 121.495 50.4493L121.563 45.0317C121.563 45.0317 121.61 44.7914 121.688 44.7276L123.312 43.0656C123.406 42.9774 123.553 42.9836 123.646 43.1082C124.106 43.7138 125.419 45.683 126.635 47.4419L128.869 50.5931C129.037 50.8274 129.234 50.8367 129.383 50.8321L129.394 50.8054Z" fill="#C6C5C5"/>
<path fill-rule="evenodd" clip-rule="evenodd" d="M74.9585 50.8034L78.3227 50.8095C78.4477 50.8171 78.5706 50.7751 78.6645 50.6928C78.7104 50.6525 78.7478 50.6033 78.7742 50.5483C78.8007 50.4933 78.8157 50.4336 78.8184 50.3727C79.021 46.4133 78.9336 27.5624 78.8058 24.5874C78.795 24.3286 78.6812 24.2328 78.502 24.21C77.6913 24.1034 75.381 24.1293 74.6405 24.3166C74.5039 24.3446 74.4059 24.4618 74.4052 24.598C74.2243 32.2703 74.346 49.9589 74.385 50.2938C74.4241 50.6286 74.6031 50.7914 74.9571 50.8035L74.9585 50.8034Z" fill="#C6C5C5"/>
<path fill-rule="evenodd" clip-rule="evenodd" d="M20.2125 45.1211C20.2125 43.0059 21.8516 41.3032 23.8875 41.3032C25.9235 41.3032 27.5625 43.0059 27.5625 45.1211V54.5187C27.5625 56.6337 25.9235 58.3366 23.8875 58.3366C21.8516 58.3366 20.2125 56.6337 20.2125 54.5187V45.1211Z" fill="#C6C5C5"/>
<path fill-rule="evenodd" clip-rule="evenodd" d="M33.8565 48.6032C31.727 48.6032 30.0125 46.9753 30.0125 44.9532C30.0125 42.9311 31.7268 41.3032 33.8565 41.3032H43.3186C45.4482 41.3032 47.1627 42.9311 47.1627 44.9532C47.1627 46.9753 45.4483 48.6032 43.3186 48.6032H33.8565Z" fill="#C6C5C5"/>
<path fill-rule="evenodd" clip-rule="evenodd" d="M30.0125 25.6548C30.0125 23.5396 31.6515 21.8369 33.6875 21.8369C35.7234 21.8369 37.3625 23.5396 37.3625 25.6548V35.0523C37.3625 37.1675 35.7234 38.8702 33.6875 38.8702C31.6515 38.8702 30.0125 37.1675 30.0125 35.0523V25.6548Z" fill="#C6C5C5"/>
<path fill-rule="evenodd" clip-rule="evenodd" d="M14.2565 38.8698C12.1269 38.8698 10.4125 37.2419 10.4125 35.2198C10.4125 33.1977 12.1269 31.5698 14.2565 31.5698H23.7184C25.8481 31.5698 27.5625 33.1977 27.5625 35.2198C27.5625 37.2419 25.8481 38.8698 23.7184 38.8698H14.2565Z" fill="#C6C5C5"/>
<path fill-rule="evenodd" clip-rule="evenodd" d="M30.0125 54.6866C30.0125 56.7087 31.6515 58.3366 33.6875 58.3366C35.7234 58.3366 37.3625 56.7087 37.3625 54.6866C37.3625 52.6645 35.7234 51.0366 33.6875 51.0366H30.0125V54.6866Z" fill="#C6C5C5"/>
<path fill-rule="evenodd" clip-rule="evenodd" d="M43.4875 38.8698H39.8125V35.2198C39.8125 33.1977 41.4516 31.5698 43.4875 31.5698C45.5234 31.5698 47.1625 33.1977 47.1625 35.2198C47.1625 37.2419 45.5234 38.8698 43.4875 38.8698Z" fill="#C6C5C5"/>
<path fill-rule="evenodd" clip-rule="evenodd" d="M14.0875 41.3032H17.7625V44.9532C17.7625 46.9753 16.1234 48.6032 14.0875 48.6032C12.0515 48.6032 10.4125 46.9753 10.4125 44.9532C10.4125 42.9311 12.0515 41.3032 14.0875 41.3032Z" fill="#C6C5C5"/>
<path fill-rule="evenodd" clip-rule="evenodd" d="M27.5625 25.4869V29.1369H23.8875C21.8516 29.1369 20.2125 27.509 20.2125 25.4869C20.2125 23.4648 21.8516 21.8369 23.8875 21.8369C25.9235 21.8369 27.5625 23.4648 27.5625 25.4869Z" fill="#C6C5C5"/>
</svg>
