<svg width="20" height="20" viewBox="0 0 20 20" fill="none" xmlns="http://www.w3.org/2000/svg">
<path fill-rule="evenodd" clip-rule="evenodd" d="M7.22253 1.00083C6.50001 1.0003 5.79608 1.22977 5.2127 1.65602C4.62931 2.08227 4.19675 2.68316 3.97768 3.37167C3.75861 4.06017 3.76439 4.80053 3.99419 5.48553C4.224 6.17052 4.66589 6.76458 5.25586 7.18167C4.81166 7.49588 4.4494 7.91215 4.19954 8.39548C3.94968 8.87881 3.81953 9.41507 3.82003 9.95917C3.82003 11.1058 4.38753 12.1208 5.25753 12.7367C4.78092 13.074 4.39916 13.5284 4.14898 14.056C3.89879 14.5836 3.78861 15.1668 3.82902 15.7493C3.86943 16.3318 4.05908 16.8941 4.37972 17.3822C4.70036 17.8702 5.1412 18.2675 5.65983 18.5358C6.17845 18.8041 6.75741 18.9345 7.34099 18.9143C7.92457 18.8941 8.49313 18.724 8.99198 18.4205C9.49082 18.117 9.90315 17.6902 10.1893 17.1812C10.4755 16.6722 10.6258 16.0981 10.6259 15.5142V12.5942C10.9798 12.8809 11.3878 13.0937 11.8256 13.2199C12.2633 13.346 12.7219 13.383 13.1742 13.3285C13.6265 13.2741 14.0633 13.1294 14.4586 12.903C14.854 12.6766 15.1998 12.3731 15.4756 12.0105C15.7515 11.648 15.9517 11.2337 16.0644 10.7923C16.1771 10.3509 16.2001 9.89135 16.1319 9.44092C16.0636 8.99048 15.9057 8.55834 15.6673 8.17011C15.4289 7.78188 15.115 7.44547 14.7442 7.18083C15.3342 6.76375 15.7761 6.16969 16.0059 5.48469C16.2357 4.7997 16.2414 4.05933 16.0224 3.37083C15.8033 2.68233 15.3707 2.08144 14.7874 1.65519C14.204 1.22894 13.5 0.999465 12.7775 1L7.22253 1.00083ZM9.37503 12.1117H7.22253C6.93986 12.1117 6.65995 12.056 6.3988 11.9478C6.13765 11.8396 5.90036 11.6811 5.70048 11.4812C5.5006 11.2813 5.34205 11.044 5.23388 10.7829C5.1257 10.5217 5.07003 10.2418 5.07003 9.95917C5.07003 9.6765 5.1257 9.3966 5.23388 9.13544C5.34205 8.87429 5.5006 8.637 5.70048 8.43712C5.90036 8.23724 6.13765 8.07869 6.3988 7.97052C6.65995 7.86234 6.93986 7.80667 7.22253 7.80667H9.37503V9.95917V12.1117ZM7.22253 6.55667H9.37503V2.25083H7.22253C6.65154 2.25083 6.10393 2.47766 5.70018 2.88141C5.29643 3.28516 5.06961 3.83276 5.06961 4.40375C5.06961 4.97474 5.29643 5.52234 5.70018 5.92609C6.10393 6.32984 6.65154 6.55667 7.22253 6.55667ZM14.9309 4.40333C14.9311 4.97392 14.7047 5.52126 14.3016 5.92504C13.8984 6.32882 13.3514 6.55601 12.7809 6.55667H10.625V2.25083H12.7784C13.061 2.25083 13.3409 2.30651 13.6021 2.41468C13.8632 2.52286 14.1005 2.68141 14.3004 2.88129C14.5003 3.08116 14.6588 3.31845 14.767 3.57961C14.8752 3.84076 14.9309 4.12066 14.9309 4.40333ZM10.625 9.95667C10.6257 9.38665 10.8524 8.84018 11.2555 8.43712C11.6585 8.03406 12.205 7.80733 12.775 7.80667H12.78C13.2055 7.80716 13.6214 7.93376 13.9749 8.17047C14.3285 8.40718 14.604 8.74338 14.7667 9.1366C14.9293 9.52981 14.9717 9.9624 14.8885 10.3797C14.8054 10.797 14.6005 11.1803 14.2996 11.4812C13.9987 11.7821 13.6154 11.9871 13.1981 12.0702C12.7808 12.1533 12.3482 12.1109 11.955 11.9483C11.5617 11.7857 11.2255 11.5102 10.9888 11.1566C10.7521 10.803 10.6255 10.3872 10.625 9.96167V9.95667ZM7.22253 13.3617C6.79684 13.3617 6.38071 13.4879 6.02675 13.7244C5.67279 13.9609 5.3969 14.297 5.23396 14.6902C5.07101 15.0835 5.02834 15.5163 5.11133 15.9338C5.19431 16.3513 5.39924 16.7349 5.70018 17.0359C6.00113 17.337 6.38459 17.5421 6.80208 17.6252C7.21957 17.7084 7.65234 17.6658 8.04568 17.5031C8.43901 17.3403 8.77524 17.0645 9.01186 16.7106C9.24848 16.3568 9.37486 15.9407 9.37503 15.515V13.3617H7.22253Z" fill="white"/>
</svg>
