<svg width="162" height="31" viewBox="0 0 162 31" fill="none" xmlns="http://www.w3.org/2000/svg">
<g clip-path="url(#clip0_1_126)">
<path d="M16.2 22.6294L21.8025 25.8715C22.8285 26.4656 24.084 25.5873 23.814 24.4765L22.329 18.3798L27.2835 14.2723C28.188 13.5231 27.702 12.1023 26.514 12.0119L19.9935 11.4823L17.442 5.72146C16.983 4.67521 15.417 4.67521 14.958 5.72146L12.4065 11.4694L5.88602 11.999C4.69802 12.0894 4.21202 13.5102 5.11652 14.2594L10.071 18.3669L8.58603 24.4635C8.31603 25.5744 9.57153 26.4527 10.5975 25.8585L16.2 22.6294V22.6294Z" fill="#F1EB4F"/>
<path d="M113.4 22.6294L119.002 25.8715C120.028 26.4656 121.284 25.5873 121.014 24.4765L119.529 18.3798L124.483 14.2723C125.388 13.5231 124.902 12.1023 123.714 12.0119L117.193 11.4823L114.642 5.72146C114.183 4.67521 112.617 4.67521 112.158 5.72146L109.606 11.4694L103.086 11.999C101.898 12.0894 101.412 13.5102 102.316 14.2594L107.271 18.3669L105.786 24.4635C105.516 25.5744 106.771 26.4527 107.797 25.8585L113.4 22.6294V22.6294Z" fill="#F1EB4F"/>
<path d="M81 22.6294L86.6025 25.8715C87.6285 26.4656 88.884 25.5873 88.614 24.4765L87.129 18.3798L92.0835 14.2723C92.988 13.5231 92.502 12.1023 91.314 12.0119L84.7935 11.4823L82.242 5.72146C81.783 4.67521 80.217 4.67521 79.758 5.72146L77.2065 11.4694L70.686 11.999C69.498 12.0894 69.012 13.5102 69.9165 14.2594L74.871 18.3669L73.386 24.4635C73.116 25.5744 74.3715 26.4527 75.3975 25.8585L81 22.6294V22.6294Z" fill="#F1EB4F"/>
<path d="M48.6 22.6294L54.2025 25.8715C55.2285 26.4656 56.484 25.5873 56.214 24.4765L54.729 18.3798L59.6835 14.2723C60.588 13.5231 60.102 12.1023 58.914 12.0119L52.3935 11.4823L49.842 5.72146C49.383 4.67521 47.817 4.67521 47.358 5.72146L44.8065 11.4694L38.286 11.999C37.098 12.0894 36.612 13.5102 37.5165 14.2594L42.471 18.3669L40.986 24.4635C40.716 25.5744 41.9715 26.4527 42.9975 25.8585L48.6 22.6294V22.6294Z" fill="#F1EB4F"/>
<path d="M145.8 22.6294L151.402 25.8715C152.428 26.4656 153.684 25.5873 153.414 24.4765L151.929 18.3798L156.883 14.2723C157.788 13.5231 157.302 12.1023 156.114 12.0119L149.593 11.4823L147.042 5.72146C146.583 4.67521 145.017 4.67521 144.558 5.72146L142.006 11.4694L135.486 11.999C134.298 12.0894 133.812 13.5102 134.716 14.2594L139.671 18.3669L138.186 24.4635C137.916 25.5744 139.171 26.4527 140.197 25.8585L145.8 22.6294V22.6294Z" fill="#F1EB4F"/>
</g>
<defs>
<clipPath id="clip0_1_126">
<rect width="162" height="31" fill="white"/>
</clipPath>
</defs>
</svg>
