<svg width="340" height="476" viewBox="0 0 340 476" fill="none" xmlns="http://www.w3.org/2000/svg">
<g opacity="0.05">
<path d="M37.5 -129C70.4709 22.3295 188.67 140.529 340 173.5C188.67 206.471 70.4709 324.67 37.5 476C4.52902 324.67 -113.67 206.471 -265 173.5C-113.67 140.529 4.52902 22.3295 37.5 -129Z" fill="black"/>
<path d="M30.465 32.9941C45.8004 103.38 100.777 158.357 171.163 173.692C100.777 189.027 45.8004 244.004 30.465 314.39C15.1297 244.004 -39.8469 189.027 -110.233 173.692C-39.8469 158.357 15.1297 103.38 30.465 32.9941Z" fill="#444444"/>
<path d="M30.4653 103.344C38.133 138.537 65.6213 166.025 100.814 173.693C65.6212 181.36 38.133 208.849 30.4653 244.041C22.7976 208.849 -4.69066 181.36 -39.8835 173.693C-4.69064 166.025 22.7976 138.537 30.4653 103.344Z" fill="black"/>
</g>
</svg>
