<svg width="18" height="17" viewBox="0 0 18 17" fill="none" xmlns="http://www.w3.org/2000/svg">
<path d="M12.5416 2.36608C13.6184 2.98778 14.5126 3.88197 15.1343 4.95878C15.756 6.03559 16.0833 7.25708 16.0833 8.50047C16.0833 9.74387 15.756 10.9654 15.1343 12.0422C14.5126 13.119 13.6184 14.0131 12.5415 14.6348C11.4647 15.2565 10.2432 15.5838 8.99985 15.5838C7.75645 15.5837 6.53497 15.2564 5.45818 14.6347C4.38138 14.013 3.48721 13.1188 2.86553 12.042C2.24386 10.9651 1.91659 9.74364 1.91663 8.50025L1.92017 8.27075C1.95984 7.04745 2.31581 5.85531 2.95337 4.81054C3.59094 3.76577 4.48834 2.90403 5.55809 2.30933C6.62784 1.71464 7.83344 1.40728 9.05734 1.41723C10.2812 1.42717 11.4817 1.75408 12.5416 2.36608ZM8.29163 4.95858V8.51583L8.29375 8.55408L8.30792 8.64971L8.31146 8.66742C8.32126 8.70745 8.33453 8.74656 8.35113 8.78429L8.37946 8.84237L8.40779 8.88842L9.82729 11.0184C9.87892 11.0958 9.94528 11.1622 10.0226 11.214C10.0999 11.2657 10.1867 11.3017 10.2779 11.32C10.3691 11.3382 10.463 11.3382 10.5543 11.3202C10.6456 11.3021 10.7324 11.2662 10.8098 11.2146C10.8871 11.163 10.9536 11.0966 11.0054 11.0193C11.0571 10.942 11.0931 10.8552 11.1113 10.764C11.1295 10.6728 11.1296 10.5788 11.1115 10.4876C11.0935 10.3963 11.0576 10.3095 11.006 10.2321L9.70829 8.28562V4.95858C9.70827 4.78509 9.64457 4.61764 9.52929 4.48799C9.414 4.35834 9.25514 4.27551 9.08283 4.25521L8.99996 4.25025C8.8121 4.25025 8.63193 4.32488 8.49909 4.45772C8.36625 4.59055 8.29163 4.77072 8.29163 4.95858Z" fill="white"/>
</svg>
