<svg width="109" height="33" viewBox="0 0 109 33" fill="none" xmlns="http://www.w3.org/2000/svg">
<g clip-path="url(#clip0_196_243)">
<path d="M29.9062 0H3.09375C1.39219 0 0 1.39219 0 3.09375V29.9062C0 31.6078 1.39219 33 3.09375 33H29.9062C31.6078 33 33 31.6078 33 29.9062V3.09375C33 1.39219 31.6078 0 29.9062 0ZM14.4375 24.75C14.4375 25.8844 13.5094 26.8125 12.375 26.8125H8.25C7.11562 26.8125 6.1875 25.8844 6.1875 24.75V8.25C6.1875 7.11562 7.11562 6.1875 8.25 6.1875H12.375C13.5094 6.1875 14.4375 7.11562 14.4375 8.25V24.75ZM26.8125 18.5625C26.8125 19.6969 25.8844 20.625 24.75 20.625H20.625C19.4906 20.625 18.5625 19.6969 18.5625 18.5625V8.25C18.5625 7.11562 19.4906 6.1875 20.625 6.1875H24.75C25.8844 6.1875 26.8125 7.11562 26.8125 8.25V18.5625Z" fill="#C6C5C5"/>
</g>
<path d="M43.8477 10.6652V7.63888H58.1062V10.6652H52.7911V25H49.1629V10.6652H43.8477ZM59.0345 25V11.9792H62.5355V14.251H62.6711C62.9085 13.4429 63.3069 12.8325 63.8664 12.42C64.4259 12.0018 65.0702 11.7927 65.7992 11.7927C65.98 11.7927 66.175 11.804 66.3841 11.8266C66.5932 11.8492 66.7769 11.8803 66.9351 11.9198V15.1242C66.7656 15.0733 66.531 15.0281 66.2315 14.9885C65.932 14.949 65.6579 14.9292 65.4092 14.9292C64.878 14.9292 64.4033 15.045 63.9851 15.2768C63.5725 15.5028 63.2448 15.8193 63.0017 16.2262C62.7644 16.6331 62.6457 17.1022 62.6457 17.6334V25H59.0345ZM74.1301 25.2543C72.7907 25.2543 71.6378 24.983 70.6714 24.4405C69.7107 23.8923 68.9703 23.1181 68.4504 22.1178C67.9305 21.1118 67.6705 19.9222 67.6705 18.5489C67.6705 17.2095 67.9305 16.034 68.4504 15.0224C68.9703 14.0108 69.7022 13.2225 70.646 12.6573C71.5954 12.0922 72.7087 11.8096 73.986 11.8096C74.845 11.8096 75.6446 11.9481 76.385 12.225C77.131 12.4963 77.7809 12.906 78.3347 13.4542C78.8942 14.0024 79.3294 14.6918 79.6402 15.5226C79.951 16.3477 80.1064 17.3141 80.1064 18.4218V19.4136H69.1116V17.1756H76.7071C76.7071 16.6557 76.5941 16.1951 76.368 15.7939C76.142 15.3926 75.8283 15.079 75.4271 14.8529C75.0315 14.6212 74.5709 14.5053 74.0453 14.5053C73.4971 14.5053 73.0111 14.6325 72.5872 14.8868C72.169 15.1355 71.8412 15.4717 71.6039 15.8956C71.3665 16.3138 71.245 16.78 71.2394 17.2943V19.4221C71.2394 20.0663 71.3581 20.623 71.5954 21.0921C71.8384 21.5611 72.1803 21.9228 72.6211 22.1771C73.062 22.4314 73.5847 22.5586 74.1894 22.5586C74.5907 22.5586 74.958 22.5021 75.2914 22.3891C75.6249 22.276 75.9103 22.1065 76.1476 21.8804C76.385 21.6544 76.5658 21.3774 76.6902 21.0497L80.0301 21.2701C79.8606 22.0726 79.513 22.7733 78.9875 23.3724C78.4675 23.9658 77.795 24.4292 76.9699 24.7626C76.1504 25.0904 75.2038 25.2543 74.1301 25.2543ZM86.0743 7.63888V25H82.4631V7.63888H86.0743ZM92.5784 7.63888V25H88.9671V7.63888H92.5784ZM101.354 25.2543C100.038 25.2543 98.8988 24.9746 97.938 24.4151C96.9829 23.8499 96.2454 23.0644 95.7255 22.0584C95.2056 21.0468 94.9456 19.8742 94.9456 18.5404C94.9456 17.1954 95.2056 16.0199 95.7255 15.014C96.2454 14.0024 96.9829 13.2168 97.938 12.6573C98.8988 12.0922 100.038 11.8096 101.354 11.8096C102.671 11.8096 103.807 12.0922 104.762 12.6573C105.723 13.2168 106.463 14.0024 106.983 15.014C107.503 16.0199 107.763 17.1954 107.763 18.5404C107.763 19.8742 107.503 21.0468 106.983 22.0584C106.463 23.0644 105.723 23.8499 104.762 24.4151C103.807 24.9746 102.671 25.2543 101.354 25.2543ZM101.371 22.4569C101.97 22.4569 102.47 22.2873 102.872 21.9482C103.273 21.6035 103.575 21.1344 103.779 20.541C103.988 19.9476 104.092 19.2723 104.092 18.515C104.092 17.7577 103.988 17.0824 103.779 16.489C103.575 15.8956 103.273 15.4265 102.872 15.0818C102.47 14.737 101.97 14.5647 101.371 14.5647C100.767 14.5647 100.258 14.737 99.8454 15.0818C99.4385 15.4265 99.1305 15.8956 98.9214 16.489C98.7179 17.0824 98.6162 17.7577 98.6162 18.515C98.6162 19.2723 98.7179 19.9476 98.9214 20.541C99.1305 21.1344 99.4385 21.6035 99.8454 21.9482C100.258 22.2873 100.767 22.4569 101.371 22.4569Z" fill="#C6C5C5"/>
<defs>
<clipPath id="clip0_196_243">
<rect width="33" height="33" fill="white"/>
</clipPath>
</defs>
</svg>
