<svg width="156" height="46" viewBox="0 0 156 46" fill="none" xmlns="http://www.w3.org/2000/svg">
<g clip-path="url(#clip0_72_1517)">
<path fill-rule="evenodd" clip-rule="evenodd" d="M26.0734 9.68213H4.36917C2.50202 9.68213 0.987679 11.1944 0.985135 13.0616V34.7338C0.981524 35.6337 1.33645 36.498 1.97147 37.1355C2.60649 37.7731 3.4693 38.1315 4.36917 38.1315H26.0734C26.9724 38.1303 27.8341 37.7714 28.4681 37.1339C29.1021 36.4965 29.4564 35.6329 29.4528 34.7338V13.0616C29.4503 11.1962 27.9387 9.68464 26.0734 9.68213ZM13.2625 30.1732C13.2613 30.4739 13.1403 30.7618 12.9264 30.9732C12.7124 31.1846 12.4231 31.3021 12.1223 31.2997H7.37921C6.75885 31.2972 6.25729 30.7935 6.25729 30.1732V16.0579C6.25729 15.4376 6.75885 14.934 7.37921 14.9314H12.1223C12.7434 14.9339 13.2463 15.4368 13.2488 16.0579L13.2625 30.1732ZM24.208 23.6925C24.208 23.9936 24.0875 24.2822 23.8733 24.4939C23.6591 24.7056 23.369 24.8226 23.0679 24.819H18.3248C17.7037 24.8165 17.2008 24.3136 17.1983 23.6925V16.0579C17.2008 15.4368 17.7037 14.9339 18.3248 14.9314H23.0679C23.6882 14.934 24.1898 15.4376 24.1898 16.0579L24.208 23.6925Z" fill="#C6C5C5"/>
<path d="M59.9726 11.7666V17.2668H53.4555V38.1318H47.1709V17.2668H40.6537V11.7666H59.9726Z" fill="#C6C5C5"/>
<path d="M67.972 38.1318H62.1617V17.6088H67.972V21.5401C69.0757 18.7718 70.8407 17.1254 73.983 17.326V23.4054C69.8784 23.0862 67.972 24.0895 67.972 27.3777V38.1318Z" fill="#C6C5C5"/>
<path d="M105.725 38.2912C101.917 38.2912 99.5227 36.4669 99.5227 32.1525V9.68213H105.374V31.3498C105.374 32.5949 106.195 33.0373 107.198 33.0373C107.488 33.0431 107.777 33.0294 108.065 32.9962V38.054C107.3 38.2404 106.512 38.3202 105.725 38.2912Z" fill="#C6C5C5"/>
<path d="M117.93 38.2912C114.121 38.2912 111.723 36.4669 111.723 32.1525V9.68213H117.574V31.3498C117.574 32.5949 118.399 33.0373 119.421 33.0373C119.709 33.0432 119.997 33.0295 120.283 32.9962V38.054C119.513 38.2422 118.721 38.322 117.93 38.2912Z" fill="#C6C5C5"/>
<path d="M123.088 27.8606C123.088 21.5213 126.736 17.1841 133.021 17.1841C139.305 17.1841 142.876 21.5076 142.876 27.8606C142.876 34.2136 139.264 38.6146 133.021 38.6146C126.777 38.6146 123.088 34.1589 123.088 27.8606ZM128.784 27.8606C128.784 30.9482 130.079 33.3972 133.021 33.3972C135.962 33.3972 137.185 30.9482 137.185 27.8606C137.185 24.773 135.93 22.3878 133.021 22.3878C130.111 22.3878 128.784 24.7685 128.784 27.8606Z" fill="#C6C5C5"/>
<path d="M81.8273 29.7171C83.4541 29.8959 85.089 29.9918 86.7255 30.0044C91.1767 30.0044 94.9347 28.8095 94.9347 24.4997C94.9347 20.3176 91.0718 17.1753 86.4245 17.1753C80.1673 17.1753 76.1584 21.7132 76.1584 28.0525C76.1584 34.6335 79.6154 38.542 87.4278 38.542C89.7455 38.5609 92.0465 38.1495 94.2141 37.3289V32.4125C92.2074 33.0555 89.9499 33.694 87.6331 33.694C84.5227 33.694 82.3564 32.6724 81.8273 29.7171ZM86.3059 21.6539C87.9523 21.6539 89.2749 22.7712 89.2749 24.299C89.2749 26.2647 87.1998 26.8804 84.81 26.8804C83.7929 26.8757 82.7776 26.7949 81.7726 26.6387C81.8485 25.6803 82.1235 24.7484 82.5799 23.9023C83.3254 22.5369 84.7503 21.6805 86.3059 21.663V21.6539Z" fill="#C6C5C5"/>
</g>
<defs>
<clipPath id="clip0_72_1517">
<rect width="154.617" height="44.1764" fill="white" transform="translate(0.697754 0.911621)"/>
</clipPath>
</defs>
</svg>
