<svg width="256" height="256" viewBox="0 0 256 256" fill="none" xmlns="http://www.w3.org/2000/svg">
<rect width="256" height="256" rx="52.0838" fill="white"/>
<path d="M125.317 32V32C135.488 78.6829 171.951 115.146 218.634 125.317V125.317V125.317C171.951 135.488 135.488 171.951 125.317 218.634V218.634V218.634C115.146 171.951 78.6829 135.488 32 125.317V125.317V125.317C78.6829 115.146 115.146 78.6829 125.317 32V32Z" fill="black"/>
<path d="M125.87 81.9722V81.9722C130.601 103.685 147.56 120.645 169.273 125.375V125.375V125.375C147.56 130.106 130.601 147.065 125.87 168.778V168.778V168.778C121.139 147.065 104.18 130.106 82.4668 125.375V125.375V125.375C104.18 120.645 121.139 103.685 125.87 81.9722V81.9722Z" fill="white"/>
<path d="M125.87 103.675V103.675C128.235 114.532 136.715 123.012 147.571 125.377V125.377V125.377C136.715 127.742 128.235 136.222 125.87 147.078V147.078V147.078C123.504 136.222 115.025 127.742 104.168 125.377V125.377V125.377C115.025 123.012 123.504 114.532 125.87 103.675V103.675Z" fill="black"/>
</svg>
