<svg width="225" height="32" viewBox="0 0 225 32" fill="none" xmlns="http://www.w3.org/2000/svg">
<g clip-path="url(#clip0_72_1508)">
<path fill-rule="evenodd" clip-rule="evenodd" d="M68.428 0.215332L52.3183 31.6655H37.1884L43.9294 18.6313H43.6258C38.0643 25.8424 29.7658 30.5887 17.9425 31.6655V18.8121C17.9425 18.8121 25.5061 18.3654 29.9522 13.6963H17.9452V0.215332H31.4431V11.3032H31.7466L37.2629 0.215332H47.4702V11.2341H47.7737L53.4977 0.215332H68.428Z" fill="#C6C5C5"/>
<path d="M156.268 28.1954H160.616V3.27295H156.268V28.1954Z" fill="#C6C5C5"/>
<path fill-rule="evenodd" clip-rule="evenodd" d="M132.305 27.9393C133.25 28.3329 134.211 28.527 135.188 28.527C136.802 28.527 138.245 28.1334 139.52 27.349C140.793 26.5646 141.78 25.4824 142.483 24.1051C143.183 22.7171 143.535 21.1404 143.535 19.3828C143.535 17.6225 143.173 16.0484 142.451 14.6605C141.73 13.2725 140.726 12.1956 139.44 11.4325C138.157 10.6587 136.695 10.2758 135.061 10.2865C134.02 10.2865 133.021 10.4886 132.068 10.8901C131.112 11.2942 130.316 11.8659 129.68 12.6077C129.632 12.6636 129.584 12.7221 129.536 12.7779V3.28809H125.173V28.1946H129.504L129.496 25.868C129.608 26.0063 129.728 26.1392 129.856 26.2695C130.543 26.9794 131.36 27.5352 132.305 27.9393ZM136.762 23.9163C136.051 24.3497 135.239 24.5678 134.326 24.5678C133.423 24.5678 132.595 24.3444 131.842 23.9004C131.089 23.443 130.489 22.8235 130.042 22.0391C129.608 21.2547 129.39 20.3639 129.39 19.3668C129.379 18.3697 129.592 17.479 130.026 16.6946C130.471 15.8995 131.073 15.2853 131.826 14.8493C132.579 14.4052 133.413 14.1872 134.326 14.1978C135.239 14.1872 136.051 14.3999 136.762 14.8333C137.483 15.2561 138.034 15.8676 138.418 16.6627C138.812 17.4471 139.006 18.3484 139.006 19.3668C139.006 20.3852 138.809 21.2866 138.418 22.071C138.037 22.8554 137.486 23.4696 136.762 23.9163Z" fill="#C6C5C5"/>
<path d="M74.7271 4.78271H79.6949L84.1383 20.9944L88.8666 4.78271H93.0065L98.1341 20.6674L102.402 4.78271H106.957L100.237 28.1922H95.9537L90.7409 12.6745L85.954 28.1922H81.6224L74.7271 4.78271Z" fill="#C6C5C5"/>
<path fill-rule="evenodd" clip-rule="evenodd" d="M114.294 28.6065C112.564 28.6172 111.004 28.2343 109.611 27.4605C108.232 26.6761 107.143 25.5886 106.347 24.2006C105.562 22.8127 105.168 21.2279 105.168 19.4464C105.168 17.7181 105.573 16.1546 106.379 14.756C107.186 13.3574 108.28 12.2646 109.659 11.4802C111.038 10.6958 112.58 10.3022 114.278 10.3022C116.19 10.3022 117.862 10.725 119.294 11.5732C120.737 12.4214 121.815 13.626 122.526 15.1841C123.248 16.7316 123.509 18.5078 123.306 20.5127H109.667C109.705 21.3103 109.904 22.0362 110.266 22.6904C110.671 23.4109 111.233 23.972 111.954 24.3761C112.676 24.7803 113.482 24.9797 114.374 24.9797C115.053 24.9691 115.684 24.8521 116.27 24.6287C116.853 24.3947 117.348 24.0837 117.75 23.6901C118.165 23.2966 118.456 22.8526 118.626 22.3553H123.181C122.904 23.5758 122.353 24.6606 121.525 25.6152C120.697 26.5591 119.656 27.2957 118.405 27.8248C117.151 28.3566 115.78 28.6172 114.294 28.6065ZM110.282 16.1387C110.027 16.5827 109.851 17.0587 109.752 17.5692H118.794C118.727 16.9231 118.527 16.3354 118.195 15.8036C117.811 15.1788 117.292 14.6949 116.635 14.3572C115.977 14.0062 115.234 13.8333 114.406 13.8333C113.525 13.8333 112.724 14.0354 112.002 14.4369C111.278 14.8384 110.706 15.4075 110.282 16.1387Z" fill="#C6C5C5"/>
<path d="M146.732 10.6668C146.732 9.24686 147.057 7.98386 147.704 6.88039C148.351 5.76629 149.259 4.90212 150.428 4.2879C151.607 3.66305 152.981 3.33865 154.551 3.31738V7.18085C153.819 7.19149 153.194 7.34571 152.672 7.64086C152.163 7.92803 151.769 8.34548 151.492 8.89854C151.24 9.4064 151.101 9.99404 151.082 10.6641H154.456V14.3388H151.08V28.192H146.732V14.3388H143.929V10.6641H146.732V10.6668Z" fill="#C6C5C5"/>
<path fill-rule="evenodd" clip-rule="evenodd" d="M171.667 28.5755C169.894 28.5755 168.308 28.1872 166.907 27.4135C165.517 26.6291 164.423 25.5469 163.627 24.1695C162.842 22.7816 162.448 21.2075 162.448 19.4472C162.448 17.6764 162.842 16.0969 163.627 14.709C164.423 13.3104 165.517 12.2228 166.907 11.4491C168.308 10.6753 169.894 10.2871 171.667 10.2871C173.451 10.2871 175.043 10.6753 176.444 11.4491C177.855 12.2228 178.954 13.305 179.739 14.693C180.525 16.081 180.924 17.6657 180.935 19.4472C180.924 21.2075 180.525 22.7816 179.739 24.1695C178.965 25.5469 177.871 26.6291 176.46 27.4135C175.048 28.1899 173.451 28.5755 171.667 28.5755ZM171.667 24.5844C172.602 24.5844 173.43 24.3716 174.151 23.9489C174.873 23.5154 175.429 22.9092 175.823 22.1354C176.217 21.3511 176.412 20.455 176.412 19.4472C176.412 18.4289 176.215 17.5275 175.823 16.7431C175.429 15.9587 174.873 15.3551 174.151 14.9297C173.43 14.4962 172.602 14.2782 171.667 14.2782C170.744 14.2782 169.921 14.4962 169.199 14.9297C168.489 15.3551 167.935 15.9587 167.543 16.7431C167.149 17.5275 166.96 18.4289 166.971 19.4472C166.971 20.455 167.168 21.3511 167.559 22.1354C167.964 22.9092 168.515 23.5128 169.215 23.9489C169.926 24.3716 170.744 24.5844 171.667 24.5844Z" fill="#C6C5C5"/>
<path d="M185.634 10.667H180.794L186.033 28.1922H190.269L193.714 16.998L197.433 28.1922H201.605L206.861 10.667H202.481L199.499 21.5767L196.206 10.667H191.97L188.693 21.816L185.634 10.667Z" fill="#C6C5C5"/>
</g>
<defs>
<clipPath id="clip0_72_1508">
<rect width="223.726" height="30.0527" fill="white" transform="translate(0.287109 0.973633)"/>
</clipPath>
</defs>
</svg>
