<svg width="34" height="35" viewBox="0 0 34 35" fill="none" xmlns="http://www.w3.org/2000/svg">
<g id="icon/navigation/arrow_upward_24px">
<path id="icon/navigation/arrow_upward_24px_2" d="M13.0635 23.1237L20.7338 15.0036L20.9303 21.9022C20.946 22.4535 21.4113 22.893 21.9626 22.8773C22.5139 22.8616 22.9465 22.4036 22.9308 21.8523L22.6655 12.5364C22.6583 12.272 22.5461 12.0213 22.3538 11.8397C22.1615 11.658 21.9049 11.5603 21.6405 11.5682L12.3242 11.8194C11.7729 11.8351 11.3403 12.2931 11.356 12.8444C11.3717 13.3957 11.8296 13.8283 12.381 13.8126L19.2799 13.6303L11.6096 21.7503C11.232 22.1501 11.2501 22.7863 11.6499 23.164C12.0497 23.5416 12.6859 23.5235 13.0635 23.1237Z" fill="black"/>
</g>
</svg>
